<svg xmlns="http://www.w3.org/2000/svg" width="324.57" height="34.623" viewBox="0 0 324.57 34.623">
  <g id="Group_346" data-name="Group 346" transform="translate(-169.441 -66)">
    <g id="Group_269" data-name="Group 269" transform="translate(21.913 -354.172)">
      <g id="Group_257" data-name="Group 257" transform="translate(196.003 424.458)">
        <path id="Path_534" data-name="Path 534" d="M219.242,450.333h-1.412a.621.621,0,0,1-.411-.135.882.882,0,0,1-.25-.348l-2.965-7.343H201.787l-2.966,7.343a.767.767,0,0,1-.25.339.663.663,0,0,1-.429.144h-1.394l10.345-25.281h1.8Zm-5.592-9.183L208.5,428.375a12.8,12.8,0,0,1-.518-1.5c-.071.286-.149.557-.232.813a7.452,7.452,0,0,1-.269.706l-5.145,12.757Z" transform="translate(-196.188 -424.676)" fill="#5dc9ec" stroke="#5dc9ec" stroke-width="0.5"/>
        <path id="Path_535" data-name="Path 535" d="M219.618,450.585h-1.972a.988.988,0,0,1-.651-.222,1.258,1.258,0,0,1-.357-.493l-2.871-7.111h-11.91l-2.872,7.108a1.126,1.126,0,0,1-.365.493,1.037,1.037,0,0,1-.663.225H196l10.653-26.033h2.31Zm-18.269-8.578h12.925l3.061,7.578a.5.5,0,0,0,.141.2.241.241,0,0,0,.171.048h.852L208.461,425.3h-.681l.384,1.343a12.349,12.349,0,0,0,.5,1.455l5.358,13.3H201.6l5.353-13.274a6.994,6.994,0,0,0,.26-.681c.08-.247.155-.511.224-.788l.338-1.355h-.615l-10.037,24.529h.833a.293.293,0,0,0,.193-.06.406.406,0,0,0,.132-.175Zm1.364-1.358h10.2l-4.938-12.259c-.052-.121-.1-.251-.156-.388-.054.147-.111.287-.17.419Z" transform="translate(-196.003 -424.552)" fill="#5dc9ec" stroke="#5dc9ec" stroke-width="0.5"/>
      </g>
      <g id="Group_258" data-name="Group 258" transform="translate(220.682 424.172)">
        <path id="Path_536" data-name="Path 536" d="M249.2,445.987a.414.414,0,0,1,.3.125l.715.768a12.054,12.054,0,0,1-1.706,1.51,10.42,10.42,0,0,1-2.02,1.143,11.844,11.844,0,0,1-2.412.733,14.9,14.9,0,0,1-2.885.26,12.291,12.291,0,0,1-4.815-.92A10.762,10.762,0,0,1,232.62,447a11.77,11.77,0,0,1-2.439-4.081,15.539,15.539,0,0,1-.867-5.325,14.82,14.82,0,0,1,.894-5.252,12.073,12.073,0,0,1,2.5-4.083,11.113,11.113,0,0,1,3.859-2.644,12.8,12.8,0,0,1,4.967-.938,12.247,12.247,0,0,1,4.593.8,12.393,12.393,0,0,1,3.645,2.269l-.554.8a.5.5,0,0,1-.447.214,1.443,1.443,0,0,1-.7-.393,9.281,9.281,0,0,0-1.34-.867,11.448,11.448,0,0,0-2.135-.866,10.485,10.485,0,0,0-3.065-.394,10.866,10.866,0,0,0-4.19.787,9.243,9.243,0,0,0-3.27,2.252,10.354,10.354,0,0,0-2.135,3.573,15.062,15.062,0,0,0,.009,9.523,10.457,10.457,0,0,0,2.135,3.564,9.224,9.224,0,0,0,3.207,2.234,10.213,10.213,0,0,0,3.993.777,14.749,14.749,0,0,0,2.421-.178,9.514,9.514,0,0,0,1.956-.536,8.79,8.79,0,0,0,1.662-.876,12.491,12.491,0,0,0,1.519-1.215,1.063,1.063,0,0,1,.179-.116A.4.4,0,0,1,249.2,445.987Z" transform="translate(-228.938 -424.296)" fill="#5dc9ec" stroke="#5dc9ec" stroke-width="0.5"/>
        <path id="Path_537" data-name="Path 537" d="M241.071,450.777a12.735,12.735,0,0,1-4.961-.949,11.2,11.2,0,0,1-3.89-2.7,12.217,12.217,0,0,1-2.518-4.21,16,16,0,0,1-.889-5.453,15.268,15.268,0,0,1,.918-5.385,12.491,12.491,0,0,1,2.579-4.208,11.52,11.52,0,0,1,3.989-2.734,13.228,13.228,0,0,1,5.111-.967,12.678,12.678,0,0,1,4.733.831,12.822,12.822,0,0,1,3.755,2.338l.248.22-.742,1.077a.861.861,0,0,1-.757.377,1.615,1.615,0,0,1-.934-.478,8.988,8.988,0,0,0-1.284-.829,11.072,11.072,0,0,0-2.064-.836,10.2,10.2,0,0,0-2.955-.377,10.539,10.539,0,0,0-4.046.758,8.914,8.914,0,0,0-3.138,2.16,10.07,10.07,0,0,0-2.057,3.445,14.691,14.691,0,0,0,.01,9.265,10.118,10.118,0,0,0,2.056,3.437,8.872,8.872,0,0,0,3.078,2.144,9.888,9.888,0,0,0,3.847.748,14.323,14.323,0,0,0,2.359-.174,9.094,9.094,0,0,0,1.879-.514,8.5,8.5,0,0,0,1.591-.838,12.264,12.264,0,0,0,1.473-1.179,1.526,1.526,0,0,1,.265-.176.78.78,0,0,1,.917.148l.964,1.036-.239.256a12.494,12.494,0,0,1-1.76,1.557,10.816,10.816,0,0,1-2.092,1.184,12.248,12.248,0,0,1-2.488.756A15.31,15.31,0,0,1,241.071,450.777Zm.339-25.853a12.472,12.472,0,0,0-4.822.909,10.767,10.767,0,0,0-3.73,2.554,11.751,11.751,0,0,0-2.423,3.957,14.511,14.511,0,0,0-.87,5.12,15.244,15.244,0,0,0,.845,5.2,11.474,11.474,0,0,0,2.36,3.953,10.445,10.445,0,0,0,3.631,2.518,11.985,11.985,0,0,0,4.669.891,14.724,14.724,0,0,0,2.813-.252,11.569,11.569,0,0,0,2.335-.709,10.069,10.069,0,0,0,1.947-1.1,11.807,11.807,0,0,0,1.41-1.211l-.472-.508a.357.357,0,0,0-.153.075,12.738,12.738,0,0,1-1.542,1.232,9.205,9.205,0,0,1-1.732.912,9.862,9.862,0,0,1-2.033.558,15.18,15.18,0,0,1-2.484.184,10.626,10.626,0,0,1-4.139-.806,9.637,9.637,0,0,1-3.337-2.324,10.879,10.879,0,0,1-2.212-3.69,15.435,15.435,0,0,1-.01-9.782,10.764,10.764,0,0,1,2.214-3.7,9.646,9.646,0,0,1,3.4-2.343,11.288,11.288,0,0,1,4.333-.815,10.916,10.916,0,0,1,3.176.411,11.764,11.764,0,0,1,2.206.9,9.523,9.523,0,0,1,1.4.9,1.437,1.437,0,0,0,.474.309c.088,0,.108-.03.119-.047l.366-.531a11.34,11.34,0,0,0-7.737-2.761Z" transform="translate(-228.814 -424.172)" fill="#5dc9ec" stroke="#5dc9ec" stroke-width="0.5"/>
      </g>
      <g id="Group_259" data-name="Group 259" transform="translate(244.41 424.172)">
        <path id="Path_538" data-name="Path 538" d="M280.745,445.987a.414.414,0,0,1,.3.125l.715.768a12.054,12.054,0,0,1-1.706,1.51,10.421,10.421,0,0,1-2.02,1.143,11.844,11.844,0,0,1-2.412.733,14.9,14.9,0,0,1-2.885.26,12.291,12.291,0,0,1-4.815-.92A10.762,10.762,0,0,1,264.165,447a11.77,11.77,0,0,1-2.439-4.081,15.538,15.538,0,0,1-.867-5.325,14.821,14.821,0,0,1,.894-5.252,12.073,12.073,0,0,1,2.5-4.083,11.113,11.113,0,0,1,3.859-2.644,12.8,12.8,0,0,1,4.967-.938,12.247,12.247,0,0,1,4.593.8,12.394,12.394,0,0,1,3.645,2.269l-.554.8a.5.5,0,0,1-.448.214,1.441,1.441,0,0,1-.7-.393,9.252,9.252,0,0,0-1.34-.867,11.418,11.418,0,0,0-2.135-.866,10.485,10.485,0,0,0-3.065-.394,10.866,10.866,0,0,0-4.19.787,9.243,9.243,0,0,0-3.27,2.252,10.342,10.342,0,0,0-2.135,3.573,15.061,15.061,0,0,0,.009,9.523,10.457,10.457,0,0,0,2.135,3.564,9.225,9.225,0,0,0,3.207,2.234,10.213,10.213,0,0,0,3.993.777,14.756,14.756,0,0,0,2.421-.178,9.527,9.527,0,0,0,1.956-.536,8.792,8.792,0,0,0,1.662-.876,12.492,12.492,0,0,0,1.519-1.215,1.088,1.088,0,0,1,.178-.116A.406.406,0,0,1,280.745,445.987Z" transform="translate(-260.483 -424.296)" fill="#5dc9ec" stroke="#5dc9ec" stroke-width="0.5"/>
        <path id="Path_539" data-name="Path 539" d="M272.616,450.777a12.732,12.732,0,0,1-4.961-.949,11.2,11.2,0,0,1-3.89-2.7,12.218,12.218,0,0,1-2.518-4.21,16,16,0,0,1-.889-5.453,15.25,15.25,0,0,1,.918-5.385,12.491,12.491,0,0,1,2.579-4.208,11.517,11.517,0,0,1,3.988-2.734,13.235,13.235,0,0,1,5.112-.967,12.681,12.681,0,0,1,4.733.831,12.836,12.836,0,0,1,3.756,2.338l.247.22-.742,1.077a.861.861,0,0,1-.757.377,1.616,1.616,0,0,1-.933-.478,8.989,8.989,0,0,0-1.284-.829,11.094,11.094,0,0,0-2.064-.836,10.2,10.2,0,0,0-2.955-.377,10.539,10.539,0,0,0-4.046.758,8.915,8.915,0,0,0-3.138,2.16,10.058,10.058,0,0,0-2.057,3.445,14.7,14.7,0,0,0,.009,9.265,10.12,10.12,0,0,0,2.057,3.437,8.872,8.872,0,0,0,3.078,2.144,9.888,9.888,0,0,0,3.847.748,14.329,14.329,0,0,0,2.359-.174,9.093,9.093,0,0,0,1.879-.514,8.525,8.525,0,0,0,1.591-.838,12.2,12.2,0,0,0,1.473-1.179,1.528,1.528,0,0,1,.266-.176.781.781,0,0,1,.917.148l.964,1.036-.239.256a12.5,12.5,0,0,1-1.76,1.557,10.815,10.815,0,0,1-2.092,1.184,12.248,12.248,0,0,1-2.488.756A15.311,15.311,0,0,1,272.616,450.777Zm.339-25.853a12.469,12.469,0,0,0-4.822.909,10.767,10.767,0,0,0-3.73,2.554,11.751,11.751,0,0,0-2.423,3.957,14.51,14.51,0,0,0-.87,5.12,15.245,15.245,0,0,0,.845,5.2,11.474,11.474,0,0,0,2.36,3.953,10.446,10.446,0,0,0,3.631,2.518,11.985,11.985,0,0,0,4.669.891,14.711,14.711,0,0,0,2.812-.252,11.577,11.577,0,0,0,2.336-.709,10.068,10.068,0,0,0,1.947-1.1,11.807,11.807,0,0,0,1.41-1.211l-.472-.508a.357.357,0,0,0-.153.075,12.8,12.8,0,0,1-1.542,1.232,9.2,9.2,0,0,1-1.732.912,9.862,9.862,0,0,1-2.033.558,15.18,15.18,0,0,1-2.484.184,10.626,10.626,0,0,1-4.139-.806,9.637,9.637,0,0,1-3.337-2.324,10.867,10.867,0,0,1-2.212-3.69,15.434,15.434,0,0,1-.01-9.782,10.764,10.764,0,0,1,2.214-3.7,9.64,9.64,0,0,1,3.4-2.343,11.288,11.288,0,0,1,4.333-.815,10.917,10.917,0,0,1,3.176.411,11.764,11.764,0,0,1,2.206.9,9.469,9.469,0,0,1,1.4.9,1.432,1.432,0,0,0,.475.309c.087,0,.108-.03.119-.047l.366-.531a11.34,11.34,0,0,0-7.737-2.761Z" transform="translate(-260.359 -424.172)" fill="#5dc9ec" stroke="#5dc9ec" stroke-width="0.5"/>
      </g>
      <g id="Group_260" data-name="Group 260" transform="translate(268.137 424.172)">
        <path id="Path_540" data-name="Path 540" d="M316.507,437.589a15.346,15.346,0,0,1-.876,5.316,11.779,11.779,0,0,1-2.466,4.074,10.88,10.88,0,0,1-3.815,2.609,13.51,13.51,0,0,1-9.8,0,10.9,10.9,0,0,1-3.805-2.609,11.768,11.768,0,0,1-2.466-4.074,16.517,16.517,0,0,1,0-10.612,11.778,11.778,0,0,1,2.466-4.075,11,11,0,0,1,3.805-2.617,12.547,12.547,0,0,1,4.9-.929,12.716,12.716,0,0,1,4.9.92,10.833,10.833,0,0,1,3.815,2.618,11.876,11.876,0,0,1,2.466,4.083A15.292,15.292,0,0,1,316.507,437.589Zm-1.894,0a14.431,14.431,0,0,0-.733-4.752,10.147,10.147,0,0,0-2.073-3.574,8.921,8.921,0,0,0-3.216-2.241,11.377,11.377,0,0,0-8.272,0,9.013,9.013,0,0,0-3.225,2.241A10.18,10.18,0,0,0,295,432.837a15.643,15.643,0,0,0,0,9.514,10.187,10.187,0,0,0,2.091,3.565,8.918,8.918,0,0,0,3.225,2.233,11.523,11.523,0,0,0,8.272,0,8.828,8.828,0,0,0,3.216-2.233,10.153,10.153,0,0,0,2.073-3.565A14.412,14.412,0,0,0,314.613,437.589Z" transform="translate(-292.028 -424.296)" fill="#5dc9ec" stroke="#5dc9ec" stroke-width="0.5"/>
        <path id="Path_541" data-name="Path 541" d="M304.322,450.759a13.078,13.078,0,0,1-5.04-.948,11.327,11.327,0,0,1-3.936-2.7,12.2,12.2,0,0,1-2.544-4.2,16.884,16.884,0,0,1,0-10.871,12.2,12.2,0,0,1,2.544-4.2,11.441,11.441,0,0,1,3.935-2.706,12.961,12.961,0,0,1,5.041-.958,13.148,13.148,0,0,1,5.049.948,11.252,11.252,0,0,1,3.945,2.708,12.321,12.321,0,0,1,2.545,4.211,16.9,16.9,0,0,1,0,10.871,12.224,12.224,0,0,1-2.545,4.2,11.294,11.294,0,0,1-3.944,2.7A13.149,13.149,0,0,1,304.322,450.759Zm0-25.835a12.22,12.22,0,0,0-4.75.9,10.673,10.673,0,0,0-3.677,2.528,11.436,11.436,0,0,0-2.386,3.945,16.136,16.136,0,0,0,0,10.354A11.435,11.435,0,0,0,295.9,446.6a10.55,10.55,0,0,0,3.676,2.519,13.134,13.134,0,0,0,9.512,0,10.547,10.547,0,0,0,3.685-2.519,11.447,11.447,0,0,0,2.386-3.945,16.138,16.138,0,0,0,0-10.354,11.556,11.556,0,0,0-2.387-3.954,10.489,10.489,0,0,0-3.684-2.527A12.391,12.391,0,0,0,304.322,424.924Zm0,24.245a11.2,11.2,0,0,1-4.27-.8,9.35,9.35,0,0,1-3.359-2.326,10.619,10.619,0,0,1-2.168-3.695,16.005,16.005,0,0,1,0-9.764,10.61,10.61,0,0,1,2.168-3.7,9.457,9.457,0,0,1,3.358-2.334,11.753,11.753,0,0,1,8.56,0,9.359,9.359,0,0,1,3.349,2.335,10.582,10.582,0,0,1,2.151,3.7,16.189,16.189,0,0,1,0,9.762,10.592,10.592,0,0,1-2.15,3.695,9.253,9.253,0,0,1-3.351,2.326A11.242,11.242,0,0,1,304.322,449.169Zm0-22.673a10.338,10.338,0,0,0-3.984.75,8.674,8.674,0,0,0-3.091,2.149,9.849,9.849,0,0,0-2.013,3.443,15.262,15.262,0,0,0,0,9.264,9.849,9.849,0,0,0,2.013,3.435,8.587,8.587,0,0,0,3.09,2.14,11.144,11.144,0,0,0,7.987,0,8.508,8.508,0,0,0,3.081-2.138,9.829,9.829,0,0,0,2-3.435,15.433,15.433,0,0,0,0-9.267,9.805,9.805,0,0,0-1.995-3.443,8.588,8.588,0,0,0-3.082-2.148A10.375,10.375,0,0,0,304.322,426.5Z" transform="translate(-291.904 -424.172)" fill="#5dc9ec" stroke="#5dc9ec" stroke-width="0.5"/>
      </g>
      <g id="Group_261" data-name="Group 261" transform="translate(297.742 424.458)">
        <path id="Path_542" data-name="Path 542" d="M341.34,449.029a8,8,0,0,0,3.261-.634,6.994,6.994,0,0,0,2.439-1.76,7.721,7.721,0,0,0,1.527-2.653,10.045,10.045,0,0,0,.528-3.3V425.052h1.822v15.633a11.323,11.323,0,0,1-.66,3.9,9.319,9.319,0,0,1-1.9,3.162,8.752,8.752,0,0,1-3.018,2.117,10.758,10.758,0,0,1-7.987,0,8.748,8.748,0,0,1-3.019-2.117,9.317,9.317,0,0,1-1.9-3.162,11.323,11.323,0,0,1-.66-3.9V425.052h1.84v15.615a10.025,10.025,0,0,0,.527,3.3,7.821,7.821,0,0,0,1.519,2.653,7,7,0,0,0,2.43,1.769A7.906,7.906,0,0,0,341.34,449.029Z" transform="translate(-331.388 -424.676)" fill="#5dc9ec" stroke="#5dc9ec" stroke-width="0.5"/>
        <path id="Path_543" data-name="Path 543" d="M341.216,450.889a10.373,10.373,0,0,1-4.142-.8,9.17,9.17,0,0,1-3.147-2.208,9.741,9.741,0,0,1-1.979-3.288,11.717,11.717,0,0,1-.684-4.032V424.552h2.592v15.991a9.691,9.691,0,0,0,.507,3.174,7.489,7.489,0,0,0,1.445,2.527,6.66,6.66,0,0,0,2.3,1.674,7.577,7.577,0,0,0,3.107.61,7.669,7.669,0,0,0,3.109-.6,6.652,6.652,0,0,0,2.31-1.666,7.409,7.409,0,0,0,1.453-2.527,9.712,9.712,0,0,0,.507-3.173V424.552h2.574v16.009a11.717,11.717,0,0,1-.684,4.032,9.733,9.733,0,0,1-1.98,3.288,9.167,9.167,0,0,1-3.146,2.208A10.379,10.379,0,0,1,341.216,450.889Zm-9.2-25.585v15.257a10.989,10.989,0,0,0,.638,3.775,8.985,8.985,0,0,0,1.826,3.036,8.426,8.426,0,0,0,2.892,2.027,10.382,10.382,0,0,0,7.688,0,8.423,8.423,0,0,0,2.891-2.027,8.989,8.989,0,0,0,1.827-3.036,10.989,10.989,0,0,0,.638-3.775V425.3h-1.07v15.257a10.475,10.475,0,0,1-.548,3.419,8.132,8.132,0,0,1-1.6,2.78,7.4,7.4,0,0,1-2.569,1.855,8.4,8.4,0,0,1-3.412.666,8.3,8.3,0,0,1-3.414-.676,7.4,7.4,0,0,1-2.558-1.863,8.247,8.247,0,0,1-1.592-2.779,10.462,10.462,0,0,1-.548-3.419V425.3Z" transform="translate(-331.264 -424.552)" fill="#5dc9ec" stroke="#5dc9ec" stroke-width="0.5"/>
      </g>
      <g id="Group_262" data-name="Group 262" transform="translate(324.042 424.458)">
        <path id="Path_544" data-name="Path 544" d="M386.24,425.052v25.281h-.857a.818.818,0,0,1-.384-.08.915.915,0,0,1-.295-.278l-16.419-21.94q.053.537.053,1.019v21.279h-1.608V425.052h.911a.94.94,0,0,1,.384.062.868.868,0,0,1,.295.277L384.7,447.278q-.053-.536-.053-1.018V425.052Z" transform="translate(-366.353 -424.676)" fill="#5dc9ec" stroke="#5dc9ec" stroke-width="0.5"/>
        <path id="Path_545" data-name="Path 545" d="M386.492,450.585h-1.234a1.19,1.19,0,0,1-.559-.123,1.291,1.291,0,0,1-.424-.39l-15.686-20.959v21.472h-2.36V424.552h1.287a1.3,1.3,0,0,1,.542.1,1.216,1.216,0,0,1,.438.393l15.653,20.911v-21.4h2.342Zm-18.838-23.978,17.226,23.019a.556.556,0,0,0,.172.172.45.45,0,0,0,.206.035h.481V425.3H384.9v20.831q0,.465.052.982l.132,1.34-17.192-22.965a.6.6,0,0,0-.153-.162.6.6,0,0,0-.225-.027h-.535v24.529h.856v-20.9q0-.465-.052-.982Z" transform="translate(-366.229 -424.552)" fill="#5dc9ec" stroke="#5dc9ec" stroke-width="0.5"/>
      </g>
      <g id="Group_263" data-name="Group 263" transform="translate(347.804 424.458)">
        <path id="Path_546" data-name="Path 546" d="M417.974,426.606h-8.88v23.727h-1.841V426.606H398.32v-1.554h19.654Z" transform="translate(-397.944 -424.676)" fill="#5dc9ec" stroke="#5dc9ec" stroke-width="0.5"/>
        <path id="Path_547" data-name="Path 547" d="M409.346,450.585h-2.593V426.858H397.82v-2.306h20.406v2.306h-8.88Zm-1.841-.752h1.088V426.106h8.88v-.8h-18.9v.8h8.934Z" transform="translate(-397.82 -424.552)" fill="#5dc9ec" stroke="#5dc9ec" stroke-width="0.5"/>
      </g>
      <g id="Group_264" data-name="Group 264" transform="translate(365.772 424.458)">
        <path id="Path_548" data-name="Path 548" d="M444.948,450.333h-1.412a.621.621,0,0,1-.411-.135.89.89,0,0,1-.25-.348l-2.965-7.343H427.493l-2.966,7.343a.767.767,0,0,1-.25.339.663.663,0,0,1-.428.144h-1.395L432.8,425.052h1.8Zm-5.592-9.183-5.146-12.775a12.8,12.8,0,0,1-.518-1.5c-.071.286-.149.557-.232.813a7.258,7.258,0,0,1-.269.706l-5.145,12.757Z" transform="translate(-421.894 -424.676)" fill="#5dc9ec" stroke="#5dc9ec" stroke-width="0.5"/>
        <path id="Path_549" data-name="Path 549" d="M445.324,450.585h-1.972a.988.988,0,0,1-.651-.222,1.265,1.265,0,0,1-.357-.493l-2.871-7.111H427.562l-2.87,7.108a1.128,1.128,0,0,1-.366.493,1.037,1.037,0,0,1-.662.225h-1.955l10.653-26.033h2.31Zm-18.269-8.578h12.924l3.061,7.578a.5.5,0,0,0,.142.2.239.239,0,0,0,.17.048h.851L434.166,425.3h-.681l.384,1.343a12.2,12.2,0,0,0,.5,1.455l5.357,13.3H427.3l5.355-13.274a6.986,6.986,0,0,0,.259-.681c.08-.247.156-.511.225-.788l.338-1.355h-.613L422.83,449.833h.834a.289.289,0,0,0,.193-.06.406.406,0,0,0,.132-.175Zm1.365-1.358h10.195l-4.938-12.259c-.052-.121-.1-.251-.156-.388-.054.147-.111.287-.17.419Z" transform="translate(-421.709 -424.552)" fill="#5dc9ec" stroke="#5dc9ec" stroke-width="0.5"/>
      </g>
      <g id="Group_265" data-name="Group 265" transform="translate(392.649 424.458)">
        <path id="Path_550" data-name="Path 550" d="M465.213,425.052a14.527,14.527,0,0,1,3.753.429,7.1,7.1,0,0,1,2.627,1.26,5.076,5.076,0,0,1,1.537,2.027,7,7,0,0,1,.5,2.716,5.468,5.468,0,0,1-.348,1.93,5.966,5.966,0,0,1-1,1.715,6.336,6.336,0,0,1-1.608,1.367,7.743,7.743,0,0,1-2.188.885,8.064,8.064,0,0,1,4.583,1.974,5.4,5.4,0,0,1,1.6,4.065,7.05,7.05,0,0,1-.572,2.894,5.857,5.857,0,0,1-1.662,2.181,7.571,7.571,0,0,1-2.68,1.366,12.637,12.637,0,0,1-3.609.474h-8.2V425.052Zm-5.431,1.446v10.381h5.467a8.855,8.855,0,0,0,2.993-.447,5.92,5.92,0,0,0,2.037-1.179,4.571,4.571,0,0,0,1.17-1.662,5.055,5.055,0,0,0,.375-1.912,4.692,4.692,0,0,0-1.616-3.868,7.85,7.85,0,0,0-4.994-1.313Zm6.342,22.37a7.629,7.629,0,0,0,5.03-1.439,5.543,5.543,0,0,0,1.251-6.2,4.515,4.515,0,0,0-1.313-1.625,6.115,6.115,0,0,0-2.108-1.027,10.376,10.376,0,0,0-2.841-.357h-6.36v10.649Z" transform="translate(-457.566 -424.676)" fill="#5dc9ec" stroke="#5dc9ec" stroke-width="0.5"/>
        <path id="Path_551" data-name="Path 551" d="M466.019,450.585h-8.577V424.552h7.647a14.953,14.953,0,0,1,3.85.442,7.515,7.515,0,0,1,2.764,1.329,5.476,5.476,0,0,1,1.649,2.177,7.389,7.389,0,0,1,.53,2.861,5.844,5.844,0,0,1-.372,2.062,6.348,6.348,0,0,1-1.064,1.823,6.744,6.744,0,0,1-1.7,1.449,7.359,7.359,0,0,1-.924.473,7.559,7.559,0,0,1,3.385,1.793,5.783,5.783,0,0,1,1.714,4.335,7.457,7.457,0,0,1-.6,3.047,6.255,6.255,0,0,1-1.767,2.318,7.975,7.975,0,0,1-2.811,1.436A13.071,13.071,0,0,1,466.019,450.585Zm-7.825-.752h7.825a12.314,12.314,0,0,0,3.5-.459,7.223,7.223,0,0,0,2.548-1.3,5.512,5.512,0,0,0,1.556-2.042,6.71,6.71,0,0,0,.54-2.742,4.994,4.994,0,0,0-1.485-3.794,7.734,7.734,0,0,0-4.375-1.872l-1.912-.275,1.875-.463a7.436,7.436,0,0,0,2.083-.841,6.01,6.01,0,0,0,1.514-1.285,5.626,5.626,0,0,0,.939-1.607,5.121,5.121,0,0,0,.324-1.8,6.663,6.663,0,0,0-.471-2.572,4.74,4.74,0,0,0-1.425-1.879,6.788,6.788,0,0,0-2.489-1.19,14.259,14.259,0,0,0-3.655-.415h-6.9Zm7.807-.712h-6.718v-11.4h6.736a10.75,10.75,0,0,1,2.944.372,6.481,6.481,0,0,1,2.236,1.093,4.892,4.892,0,0,1,1.422,1.759,5.915,5.915,0,0,1-1.348,6.649A8.016,8.016,0,0,1,466,449.121Zm-5.966-.752H466a7.31,7.31,0,0,0,4.787-1.35,5.17,5.17,0,0,0,1.155-5.751,4.162,4.162,0,0,0-1.206-1.491,5.8,5.8,0,0,0-1.98-.963,10.069,10.069,0,0,0-2.737-.342h-5.984Zm5.091-11.237h-5.843V426h5.807a8.226,8.226,0,0,1,5.231,1.4,5.067,5.067,0,0,1,1.756,4.159,5.445,5.445,0,0,1-.4,2.053,4.971,4.971,0,0,1-1.264,1.8,6.322,6.322,0,0,1-2.165,1.256A9.284,9.284,0,0,1,465.125,437.131Zm-5.091-.752h5.091a8.525,8.525,0,0,0,2.865-.424,5.569,5.569,0,0,0,1.91-1.1,4.218,4.218,0,0,0,1.076-1.525,4.689,4.689,0,0,0,.348-1.771,4.3,4.3,0,0,0-1.477-3.577,7.54,7.54,0,0,0-4.757-1.229h-5.055Z" transform="translate(-457.442 -424.552)" fill="#5dc9ec" stroke="#5dc9ec" stroke-width="0.5"/>
      </g>
      <g id="Group_266" data-name="Group 266" transform="translate(415.232 424.458)">
        <path id="Path_552" data-name="Path 552" d="M495.237,425.052a14.517,14.517,0,0,1,3.752.429,7.1,7.1,0,0,1,2.627,1.26,5.069,5.069,0,0,1,1.537,2.027,6.982,6.982,0,0,1,.5,2.716,5.451,5.451,0,0,1-.348,1.93,5.947,5.947,0,0,1-1,1.715A6.346,6.346,0,0,1,500.7,436.5a7.748,7.748,0,0,1-2.189.885,8.062,8.062,0,0,1,4.583,1.974,5.4,5.4,0,0,1,1.6,4.065,7.05,7.05,0,0,1-.572,2.894,5.849,5.849,0,0,1-1.662,2.181,7.568,7.568,0,0,1-2.679,1.366,12.642,12.642,0,0,1-3.61.474h-8.2V425.052Zm-5.431,1.446v10.381h5.468a8.851,8.851,0,0,0,2.992-.447,5.913,5.913,0,0,0,2.037-1.179,4.574,4.574,0,0,0,1.17-1.662,5.056,5.056,0,0,0,.375-1.912,4.693,4.693,0,0,0-1.617-3.868,7.846,7.846,0,0,0-4.994-1.313Zm6.343,22.37a7.628,7.628,0,0,0,5.029-1.439,5,5,0,0,0,1.707-4.047,4.945,4.945,0,0,0-.456-2.153,4.507,4.507,0,0,0-1.313-1.625,6.109,6.109,0,0,0-2.108-1.027,10.376,10.376,0,0,0-2.841-.357h-6.36v10.649Z" transform="translate(-487.59 -424.676)" fill="#5dc9ec" stroke="#5dc9ec" stroke-width="0.5"/>
        <path id="Path_553" data-name="Path 553" d="M496.042,450.585h-8.576V424.552h7.647a14.953,14.953,0,0,1,3.85.442,7.521,7.521,0,0,1,2.764,1.329,5.482,5.482,0,0,1,1.648,2.177,7.375,7.375,0,0,1,.53,2.861,5.843,5.843,0,0,1-.372,2.062,6.349,6.349,0,0,1-1.064,1.823,6.732,6.732,0,0,1-1.7,1.449,7.347,7.347,0,0,1-.924.473,7.567,7.567,0,0,1,3.385,1.793,5.782,5.782,0,0,1,1.713,4.335,7.445,7.445,0,0,1-.6,3.047,6.26,6.26,0,0,1-1.766,2.318,7.985,7.985,0,0,1-2.812,1.436A13.07,13.07,0,0,1,496.042,450.585Zm-7.824-.752h7.824a12.306,12.306,0,0,0,3.5-.459,7.216,7.216,0,0,0,2.548-1.3,5.5,5.5,0,0,0,1.556-2.042,6.7,6.7,0,0,0,.54-2.742A4.993,4.993,0,0,0,502.7,439.5a7.736,7.736,0,0,0-4.375-1.872l-1.912-.275,1.875-.463a7.45,7.45,0,0,0,2.084-.841,5.994,5.994,0,0,0,1.513-1.285,5.627,5.627,0,0,0,.939-1.607,5.12,5.12,0,0,0,.323-1.8,6.663,6.663,0,0,0-.471-2.572,4.746,4.746,0,0,0-1.425-1.879,6.8,6.8,0,0,0-2.49-1.19,14.253,14.253,0,0,0-3.654-.415h-6.9Zm7.807-.712h-6.719v-11.4h6.736a10.746,10.746,0,0,1,2.944.372,6.492,6.492,0,0,1,2.237,1.093,4.89,4.89,0,0,1,1.421,1.759,5.911,5.911,0,0,1-1.348,6.649A8.014,8.014,0,0,1,496.025,449.121Zm-5.967-.752h5.967a7.312,7.312,0,0,0,4.787-1.35,5.168,5.168,0,0,0,1.154-5.751,4.161,4.161,0,0,0-1.205-1.491,5.805,5.805,0,0,0-1.98-.963,10.075,10.075,0,0,0-2.738-.342h-5.984Zm5.091-11.237h-5.844V426h5.807a8.229,8.229,0,0,1,5.231,1.4,5.067,5.067,0,0,1,1.756,4.159,5.459,5.459,0,0,1-.4,2.053,4.973,4.973,0,0,1-1.264,1.8,6.321,6.321,0,0,1-2.165,1.256A9.279,9.279,0,0,1,495.149,437.131Zm-5.091-.752h5.091a8.52,8.52,0,0,0,2.864-.424,5.563,5.563,0,0,0,1.91-1.1A4.22,4.22,0,0,0,501,433.328a4.689,4.689,0,0,0,.348-1.771,4.3,4.3,0,0,0-1.478-3.577,7.54,7.54,0,0,0-4.757-1.229h-5.055Z" transform="translate(-487.466 -424.552)" fill="#5dc9ec" stroke="#5dc9ec" stroke-width="0.5"/>
      </g>
      <g id="Group_267" data-name="Group 267" transform="translate(437.816 424.458)">
        <path id="Path_554" data-name="Path 554" d="M531.8,448.778v1.555H517.99V425.052h1.84v23.726Z" transform="translate(-517.614 -424.676)" fill="#5dc9ec" stroke="#5dc9ec" stroke-width="0.5"/>
        <path id="Path_555" data-name="Path 555" d="M532.053,450.585H517.49V424.552h2.592v23.726h11.971Zm-13.811-.752H531.3v-.8H519.33V425.3h-1.088Z" transform="translate(-517.49 -424.552)" fill="#5dc9ec" stroke="#5dc9ec" stroke-width="0.5"/>
      </g>
      <g id="Group_268" data-name="Group 268" transform="translate(455.896 424.458)">
        <path id="Path_556" data-name="Path 556" d="M557.215,448.815l-.036,1.519H542.028V425.052h15.151v1.519h-13.31v10.22h11.077v1.483H543.869v10.541Z" transform="translate(-541.652 -424.676)" fill="#5dc9ec" stroke="#5dc9ec" stroke-width="0.5"/>
        <path id="Path_557" data-name="Path 557" d="M557.422,450.585H541.528V424.552h15.9v2.271h-13.31v9.468H555.2v2.235H544.121v9.789h13.355Zm-15.142-.752h14.408l.018-.766H543.369V437.774h11.077v-.731H543.369V426.071h13.31V425.3h-14.4Z" transform="translate(-541.528 -424.552)" fill="#5dc9ec" stroke="#5dc9ec" stroke-width="0.5"/>
      </g>
    </g>
    <path id="Path_558" data-name="Path 558" d="M133.984,408.582a1.276,1.276,0,0,0-2.21,0l-18.516,32.071a1.276,1.276,0,0,0,1.1,1.914h37.043a1.276,1.276,0,0,0,1.022-2.04Zm-17.412,31.433,5.143-8.907,5.143,8.907Zm13.232,0-6.616-11.458,9.691-16.786,16.306,28.244Z" transform="translate(56.353 -341.944)" fill="#5dc9ec"/>
  </g>
</svg>
